<svg xmlns="http://www.w3.org/2000/svg" xmlns:xlink="http://www.w3.org/1999/xlink" width="360" zoomAndPan="magnify" viewBox="0 0 270 337.499995" height="450" preserveAspectRatio="xMidYMid meet" version="1.0"><defs><clipPath id="fb639bc759"><path d="M 4.753906 38.253906 L 265.367188 38.253906 L 265.367188 298.871094 L 4.753906 298.871094 Z M 4.753906 38.253906 " clip-rule="nonzero"/></clipPath><clipPath id="14952cc382"><path d="M 82 101.84375 L 188 101.84375 L 188 258.214844 L 82 258.214844 Z M 82 101.84375 " clip-rule="nonzero"/></clipPath></defs><g clip-path="url(#fb639bc759)"><path fill="#100029" d="M 135.0625 298.871094 C 207.027344 298.871094 265.367188 240.527344 265.367188 168.5625 C 265.367188 96.597656 207.027344 38.253906 135.0625 38.253906 C 63.09375 38.253906 4.753906 96.597656 4.753906 168.5625 C 4.753906 240.527344 63.09375 298.871094 135.0625 298.871094 Z M 135.0625 298.871094 " fill-opacity="1" fill-rule="nonzero"/></g><g clip-path="url(#14952cc382)"><path fill="#ffffff" d="M 82.9375 101.84375 L 187.183594 101.84375 L 187.183594 153.96875 L 135.0625 153.96875 Z M 82.9375 153.96875 L 135.0625 153.96875 L 187.183594 206.089844 L 82.9375 206.089844 Z M 82.9375 206.089844 L 135.0625 206.089844 L 135.0625 258.214844 Z M 82.9375 206.089844 " fill-opacity="1" fill-rule="nonzero"/></g></svg>